<?xml version="1.0" encoding="utf-8"?>
<!-- Generator: Adobe Illustrator 19.0.0, SVG Export Plug-In . SVG Version: 6.00 Build 0)  -->
<svg version="1.1" id="Layer_1" xmlns="http://www.w3.org/2000/svg" xmlns:xlink="http://www.w3.org/1999/xlink" x="0px" y="0px"
	 viewBox="0 0 495 85" style="enable-background:new 0 0 495 85;" xml:space="preserve">
<style type="text/css">
	.st0{fill:#FFFFFF;}
</style>
<g id="XMLID_15_">
	<path id="XMLID_16_" class="st0" d="M19.5,67.5c0.4-4.2,0.8-8.9,1-14.1l0.8-17.2c0.3-6.2,0.4-11.8,0.4-16.6c2.7,0,5,0.1,6.9,0.1
		c1.4,0,3.5,0,6.1-0.1c2.7,4.6,6.3,10.6,11,18.1C50.5,45,54.3,51.2,57.1,56l1.3-32.6c0-0.8,0-2.1,0-3.9c2.2,0,3.9,0.1,5,0.1
		c0.4,0,2.1,0,4.9-0.1l-0.9,12.9l-1.1,22.1l-0.4,13c-2.4,0-4.5-0.1-6.2-0.1c-1.4,0-3.6,0-6.6,0.1c-1.2-2.1-2.1-3.6-2.7-4.6
		c-1-1.5-3-4.7-6.2-9.6c-2.1-3.2-4.6-7.3-7.7-12.2c-2.3-3.7-4.2-6.8-5.8-9.6c-0.2,3.8-0.5,10.8-0.9,21.1c-0.2,4.2-0.3,9.2-0.4,14.9
		c-2.2,0-3.8-0.1-4.8-0.1C23.9,67.4,22.2,67.5,19.5,67.5z"/>
	<path id="XMLID_18_" class="st0" d="M103.5,18.7c3.5,0,6.8,0.5,10.1,1.4c3.2,1,6.1,2.5,8.5,4.7c2.5,2.2,4.4,4.7,5.6,7.6
		s1.9,6.2,1.9,10.1c0,3.6-0.6,7.1-1.8,10.4c-1.2,3.3-3,6.1-5.6,8.5c-2.5,2.4-5.6,4.1-9.2,5.3s-7.4,1.7-11.3,1.7
		c-3.8,0-7.4-0.5-10.8-1.6s-6.4-2.7-8.9-5s-4.3-4.8-5.4-7.8S75,48,75,44.6c0-3.7,0.7-7.3,2-10.7c1.3-3.4,3.3-6.2,5.9-8.4
		c2.6-2.2,5.7-3.9,9.2-5.1C95.7,19.2,99.4,18.7,103.5,18.7z M102.9,26.2c-3.5,0-6.6,0.8-9.2,2.4c-2.6,1.6-4.6,3.9-5.9,6.7
		c-1.3,2.8-2,5.9-2,9.2c0,3,0.6,5.9,1.9,8.4s3.2,4.5,5.9,5.9c2.6,1.3,5.5,2,8.6,2c2.3,0,4.5-0.4,6.6-1.2c2.1-0.8,3.9-2,5.5-3.6
		c1.5-1.6,2.7-3.6,3.5-5.9c0.8-2.3,1.2-4.7,1.2-7.2c0-2.3-0.3-4.5-1-6.7c-0.7-2.1-1.8-4-3.2-5.5c-1.5-1.5-3.2-2.7-5.3-3.4
		S105.2,26.2,102.9,26.2z"/>
	<path id="XMLID_21_" class="st0" d="M136.2,67.5c0.7-7,1.2-15,1.6-24.1c0.4-9.1,0.5-17,0.5-23.9c2.8,0,5.2,0.1,7.1,0.1
		c2,0,4,0,6-0.1c2-0.1,4-0.1,6.2-0.1c2.7,0,5.1,0.2,7.3,0.5c2.1,0.3,4,1,5.7,2.1c1.7,1.1,2.9,2.4,3.7,4c0.8,1.6,1.2,3.4,1.2,5.5
		c0,1.3-0.2,2.6-0.5,3.7c-0.3,1.2-0.8,2.3-1.4,3.3c-0.6,1-1.3,2-2.1,2.7c-0.8,0.8-1.6,1.4-2.4,1.9s-1.7,0.8-2.8,1.2
		c-1,0.3-2.4,0.7-4.1,1.2l2.4,4.6c0.8,1.5,2.2,4.1,4.4,7.9l3.6,6.2c0.2,0.3,0.8,1.4,1.7,3.2c-2.9,0-4.8-0.1-5.7-0.1
		c-1.1,0-3.1,0-6,0.1l-3.9-9.4c-0.7-1.4-1.5-3.1-2.5-5.1l-4.2-8.5c-0.4-0.8-1-2-1.8-3.6c1.6,0.3,3,0.4,4.3,0.4c2,0,3.9-0.3,5.5-1
		c1.7-0.7,2.9-1.7,3.8-3c0.9-1.4,1.3-2.9,1.3-4.5c0-1-0.2-1.9-0.6-2.7s-1-1.6-2-2.1c-0.9-0.6-2-1-3.3-1.1c-1.3-0.2-2.5-0.2-3.8-0.2
		c-0.7,0-1.7,0-2.9,0c-1.2,0-2.7,0-4.5,0l-0.6,14.4L147,67.5l-5.5-0.1C140.6,67.4,138.9,67.5,136.2,67.5z"/>
	<path id="XMLID_23_" class="st0" d="M181.7,67.5l0.9-12.2l0.7-15.3l0.5-15.2c0-0.7,0-2.4,0-5.2c2.6,0,5.1,0.1,7.3,0.1
		c1.7,0,4,0,6.8-0.1c2.8-0.1,5.2-0.1,7.3-0.1c2.8,0,5.3,0.2,7.7,0.5c2.4,0.3,4.4,0.9,6.2,1.8c1.8,0.9,3.3,2,4.6,3.4
		c1.3,1.4,2.3,2.9,3.2,4.5c0.8,1.7,1.4,3.5,1.9,5.5c0.4,2,0.7,4.1,0.7,6.2c0,4-0.7,7.9-2.1,11.5c-1.4,3.6-3.5,6.7-6.2,9
		c-2.8,2.4-5.8,3.9-9.2,4.6c-3.4,0.7-7.2,1-11.4,1l-12-0.1C187.7,67.4,185.4,67.5,181.7,67.5z M192.5,60c1.9,0.1,3.8,0.1,5.7,0.1
		c2.1,0,4.1-0.1,5.9-0.3c1.8-0.2,3.4-0.5,4.7-1c1.3-0.5,2.6-1.3,4-2.4c1.3-1.1,2.4-2.5,3.3-4s1.5-3.2,1.9-5c0.4-1.9,0.7-3.7,0.7-5.7
		c0-3.5-0.6-6.4-1.8-8.7c-1.2-2.3-2.8-3.9-4.7-4.9c-2-1-5-1.5-9.1-1.5c-2.6,0-5.7,0-9.1,0.1L192.5,60z"/>
	<path id="XMLID_26_" class="st0" d="M234.8,66.5c-0.2-3.6-0.4-6.5-0.7-8.7c4.6,2.1,8.8,3.1,12.5,3.1c1.5,0,2.9-0.2,4.2-0.7
		s2.3-1.1,2.9-1.9c0.6-0.8,0.9-1.8,0.9-2.8c0-0.8-0.1-1.5-0.4-2.1c-0.4-0.9-1.2-1.8-2.2-2.7c-1.3-1.3-3.7-3.4-7.2-6.4
		c-1.6-1.4-2.8-2.4-3.4-3.1c-1.4-1.3-2.5-2.5-3.2-3.6c-0.8-1.1-1.3-2.1-1.6-3.2S236,32.2,236,31c0-2.2,0.6-4.3,1.8-6.2
		s3.1-3.4,5.5-4.5s5.5-1.6,9.3-1.6c3.4,0,7.1,0.4,11.3,1.2c0.1,2.4,0.4,5.2,0.7,8.4c-3.6-1.4-7-2.1-10.1-2.1c-2.3,0-4.2,0.5-5.6,1.6
		c-1.5,1-2.2,2.3-2.2,3.6c0,0.4,0.1,0.8,0.2,1.2c0.1,0.4,0.3,0.8,0.5,1.2c0.2,0.4,0.6,0.9,1.1,1.5c0.5,0.6,1.3,1.3,2.3,2.2
		c1,0.8,1.9,1.5,2.6,2l4.3,3.9c1.1,0.9,2.1,1.8,2.9,2.7c0.9,0.9,1.6,1.7,2.2,2.5c0.6,0.8,1.1,1.6,1.5,2.3c0.4,0.7,0.6,1.5,0.8,2.2
		c0.2,0.8,0.3,1.6,0.3,2.4c0,2-0.5,3.8-1.4,5.6c-0.9,1.7-2.2,3.2-3.9,4.3s-3.6,1.9-5.6,2.3s-4.2,0.7-6.5,0.7c-1.5,0-3.2-0.1-5.2-0.4
		C240.7,67.7,238.1,67.2,234.8,66.5z"/>
	<path id="XMLID_28_" class="st0" d="M283.2,67.5l0.8-10.3l0.8-15.3l0.5-15h-2.5l-2.3,0l-2.2,0l-8.1,0.2c0.2-3.4,0.3-5.9,0.3-7.7
		c6.7,0,13.8,0.1,21.2,0.1l12.6,0l6.7,0c-0.2,3.3-0.4,5.9-0.4,7.7c-4.2-0.2-8.3-0.3-12.2-0.3h-2.7l-0.4,6.4l-1,24.7l-0.1,4.1
		c0,1.7,0,3.5,0,5.3l-5.4-0.1C288.3,67.4,286.4,67.5,283.2,67.5z"/>
	<path id="XMLID_30_" class="st0" d="M314.4,67.5c0.7-7,1.2-15,1.6-24.1s0.5-17,0.5-23.9c2.8,0,5.2,0.1,7.1,0.1c2,0,4,0,6-0.1
		s4-0.1,6.2-0.1c2.7,0,5.1,0.2,7.3,0.5c2.1,0.3,4,1,5.7,2.1c1.7,1.1,2.9,2.4,3.7,4c0.8,1.6,1.2,3.4,1.2,5.5c0,1.3-0.2,2.6-0.5,3.7
		c-0.3,1.2-0.8,2.3-1.4,3.3c-0.6,1-1.3,2-2.1,2.7c-0.8,0.8-1.6,1.4-2.4,1.9s-1.7,0.8-2.8,1.2c-1,0.3-2.4,0.7-4.1,1.2l2.4,4.6
		c0.8,1.5,2.2,4.1,4.4,7.9l3.6,6.2c0.2,0.3,0.8,1.4,1.7,3.2c-2.9,0-4.8-0.1-5.7-0.1c-1.1,0-3.1,0-6,0.1l-3.9-9.4
		c-0.7-1.4-1.5-3.1-2.5-5.1l-4.2-8.5c-0.4-0.8-1-2-1.8-3.6c1.6,0.3,3,0.4,4.3,0.4c2,0,3.9-0.3,5.5-1c1.7-0.7,2.9-1.7,3.8-3
		c0.9-1.4,1.3-2.9,1.3-4.5c0-1-0.2-1.9-0.6-2.7s-1-1.6-2-2.1c-0.9-0.6-2-1-3.3-1.1c-1.3-0.2-2.5-0.2-3.8-0.2c-0.7,0-1.7,0-2.9,0
		c-1.2,0-2.7,0-4.5,0l-0.6,14.4l-0.7,26.4l-5.5-0.1C318.8,67.4,317,67.5,314.4,67.5z"/>
	<path id="XMLID_32_" class="st0" d="M387.1,18.7c3.5,0,6.8,0.5,10.1,1.4c3.2,1,6.1,2.5,8.5,4.7c2.5,2.2,4.4,4.7,5.6,7.6
		s1.9,6.2,1.9,10.1c0,3.6-0.6,7.1-1.8,10.4c-1.2,3.3-3,6.1-5.6,8.5c-2.5,2.4-5.6,4.1-9.2,5.3s-7.4,1.7-11.3,1.7
		c-3.8,0-7.4-0.5-10.8-1.6s-6.4-2.7-8.9-5s-4.3-4.8-5.4-7.8s-1.6-6.1-1.6-9.5c0-3.7,0.7-7.3,2-10.7c1.3-3.4,3.3-6.2,5.9-8.4
		c2.6-2.2,5.7-3.9,9.2-5.1C379.3,19.2,383.1,18.7,387.1,18.7z M386.6,26.2c-3.5,0-6.6,0.8-9.2,2.4c-2.6,1.6-4.6,3.9-5.9,6.7
		c-1.3,2.8-2,5.9-2,9.2c0,3,0.6,5.9,1.9,8.4s3.2,4.5,5.9,5.9c2.6,1.3,5.5,2,8.6,2c2.3,0,4.5-0.4,6.6-1.2c2.1-0.8,3.9-2,5.5-3.6
		c1.5-1.6,2.7-3.6,3.5-5.9c0.8-2.3,1.2-4.7,1.2-7.2c0-2.3-0.3-4.5-1-6.7c-0.7-2.1-1.8-4-3.2-5.5c-1.5-1.5-3.2-2.7-5.3-3.4
		S388.8,26.2,386.6,26.2z"/>
	<path id="XMLID_35_" class="st0" d="M419.1,67.5l0.9-7.9l2.3-27.9l0.8-12.1c3.3,0,5.8,0.1,7.3,0.1c1.2,0,3.5,0,6.8-0.1
		c0.4,1.9,0.7,3.2,0.8,4c0.2,0.8,0.6,2.1,1.1,3.8c0.5,1.8,1.2,3.9,2.1,6.4c1.2,3.8,2.4,7.5,3.3,11.3l2.7,10.1l4.7-12.9l6.8-16.8
		c0.2-0.6,0.5-1.2,0.7-2c0.2-0.7,0.7-2.1,1.2-4c2.8,0,5.3,0.1,7.5,0.1c1.5,0,3.8,0,7-0.1c-0.3,6.8-0.6,14.2-0.7,22.4
		c-0.2,8.2-0.2,14.3-0.2,18.3c0,1.9,0,4.4,0.1,7.3c-2.3,0-3.9-0.1-4.7-0.1c-1.2,0-2.8,0-4.9,0.1c0.1-2.4,0.2-4.4,0.3-5.9l0.6-20.9
		c0.1-3,0.1-5.9,0.1-8.7l0-2.8l-12.9,34.2l-1.5,4.2c-2.3,0-3.8-0.1-4.7-0.1c-1.1,0-2.7,0-5,0.1l-6-21.7c-0.2-0.8-0.7-2.4-1.5-4.9
		l-2.2-7.2c-0.2-0.7-0.4-1.2-0.5-1.7c-0.1-0.4-0.3-1.4-0.7-2.9l-0.5,4.5c-0.1,1.4-0.3,3.8-0.5,7.2l-1.4,21.8c0,1.1-0.1,2.7-0.1,4.8
		l-4.5-0.1C422.9,67.4,421.4,67.5,419.1,67.5z"/>
</g>
</svg>
